<mxfile host="app.diagrams.net" agent="Mozilla/5.0 (Windows NT 10.0; Win64; x64) AppleWebKit/537.36 (KHTML, like Gecko) Chrome/140.0.0.0 Safari/537.36" version="28.2.5">
  <diagram name="Page-1" id="FIGykpyckQKlltSp3G4D">
    <mxGraphModel dx="1042" dy="527" grid="1" gridSize="10" guides="1" tooltips="1" connect="1" arrows="1" fold="1" page="1" pageScale="1" pageWidth="827" pageHeight="1169" math="0" shadow="0">
      <root>
        <mxCell id="0" />
        <mxCell id="1" parent="0" />
        <mxCell id="dMFxi2ecZQlO_uNMJt3N-25" value="Image" style="swimlane;fontStyle=0;childLayout=stackLayout;horizontal=1;startSize=30;horizontalStack=0;resizeParent=1;resizeParentMax=0;resizeLast=0;collapsible=1;marginBottom=0;whiteSpace=wrap;html=1;" vertex="1" parent="1">
          <mxGeometry x="200" y="320" width="160" height="160" as="geometry" />
        </mxCell>
        <mxCell id="dMFxi2ecZQlO_uNMJt3N-26" value="&lt;b&gt;- imageID&lt;/b&gt;&lt;div&gt;- imagePath&lt;/div&gt;&lt;div&gt;- plantID&lt;/div&gt;" style="text;strokeColor=none;fillColor=none;align=left;verticalAlign=middle;spacingLeft=4;spacingRight=4;overflow=hidden;points=[[0,0.5],[1,0.5]];portConstraint=eastwest;rotatable=0;whiteSpace=wrap;html=1;" vertex="1" parent="dMFxi2ecZQlO_uNMJt3N-25">
          <mxGeometry y="30" width="160" height="130" as="geometry" />
        </mxCell>
        <mxCell id="dMFxi2ecZQlO_uNMJt3N-29" value="Plant" style="swimlane;fontStyle=0;childLayout=stackLayout;horizontal=1;startSize=30;horizontalStack=0;resizeParent=1;resizeParentMax=0;resizeLast=0;collapsible=1;marginBottom=0;whiteSpace=wrap;html=1;" vertex="1" parent="1">
          <mxGeometry y="320" width="160" height="160" as="geometry" />
        </mxCell>
        <mxCell id="dMFxi2ecZQlO_uNMJt3N-30" value="&lt;br&gt;&lt;div&gt;&lt;b&gt;- plantID&lt;/b&gt;&lt;/div&gt;&lt;div&gt;- ownerAccountID&lt;/div&gt;" style="text;strokeColor=none;fillColor=none;align=left;verticalAlign=middle;spacingLeft=4;spacingRight=4;overflow=hidden;points=[[0,0.5],[1,0.5]];portConstraint=eastwest;rotatable=0;whiteSpace=wrap;html=1;" vertex="1" parent="dMFxi2ecZQlO_uNMJt3N-29">
          <mxGeometry y="30" width="160" height="130" as="geometry" />
        </mxCell>
        <mxCell id="dMFxi2ecZQlO_uNMJt3N-32" value="ImageAnalysis" style="swimlane;fontStyle=0;childLayout=stackLayout;horizontal=1;startSize=30;horizontalStack=0;resizeParent=1;resizeParentMax=0;resizeLast=0;collapsible=1;marginBottom=0;whiteSpace=wrap;html=1;" vertex="1" parent="1">
          <mxGeometry x="400" y="320" width="160" height="160" as="geometry" />
        </mxCell>
        <mxCell id="dMFxi2ecZQlO_uNMJt3N-33" value="&lt;b&gt;- analysisID&lt;/b&gt;&lt;div&gt;- imageID&lt;/div&gt;&lt;div&gt;- leafAnalysis[]&lt;/div&gt;&lt;div&gt;- diagnosisLLMOutput&lt;/div&gt;" style="text;strokeColor=none;fillColor=none;align=left;verticalAlign=middle;spacingLeft=4;spacingRight=4;overflow=hidden;points=[[0,0.5],[1,0.5]];portConstraint=eastwest;rotatable=0;whiteSpace=wrap;html=1;" vertex="1" parent="dMFxi2ecZQlO_uNMJt3N-32">
          <mxGeometry y="30" width="160" height="70" as="geometry" />
        </mxCell>
        <mxCell id="dMFxi2ecZQlO_uNMJt3N-50" value="GenerateLeaves()&lt;div&gt;GetDiagnosisLLMOutput()&lt;/div&gt;&lt;div&gt;GetImage()&lt;/div&gt;" style="rounded=0;whiteSpace=wrap;html=1;" vertex="1" parent="dMFxi2ecZQlO_uNMJt3N-32">
          <mxGeometry y="100" width="160" height="60" as="geometry" />
        </mxCell>
        <mxCell id="dMFxi2ecZQlO_uNMJt3N-34" value="LeafAnalysis" style="swimlane;fontStyle=0;childLayout=stackLayout;horizontal=1;startSize=30;horizontalStack=0;resizeParent=1;resizeParentMax=0;resizeLast=0;collapsible=1;marginBottom=0;whiteSpace=wrap;html=1;" vertex="1" parent="1">
          <mxGeometry x="667" y="320" width="160" height="160" as="geometry" />
        </mxCell>
        <mxCell id="dMFxi2ecZQlO_uNMJt3N-35" value="&lt;b&gt;- leafID&lt;/b&gt;&lt;div&gt;- analysisID&lt;/div&gt;&lt;div&gt;- imageID&lt;/div&gt;&lt;div&gt;- boundingBox&lt;/div&gt;&lt;div&gt;- diagnosisResult&lt;/div&gt;" style="text;strokeColor=none;fillColor=none;align=left;verticalAlign=middle;spacingLeft=4;spacingRight=4;overflow=hidden;points=[[0,0.5],[1,0.5]];portConstraint=eastwest;rotatable=0;whiteSpace=wrap;html=1;" vertex="1" parent="dMFxi2ecZQlO_uNMJt3N-34">
          <mxGeometry y="30" width="160" height="130" as="geometry" />
        </mxCell>
        <mxCell id="dMFxi2ecZQlO_uNMJt3N-45" style="edgeStyle=orthogonalEdgeStyle;rounded=0;orthogonalLoop=1;jettySize=auto;html=1;exitX=0.75;exitY=1;exitDx=0;exitDy=0;entryX=0.5;entryY=0;entryDx=0;entryDy=0;" edge="1" parent="1" source="dMFxi2ecZQlO_uNMJt3N-36" target="dMFxi2ecZQlO_uNMJt3N-25">
          <mxGeometry relative="1" as="geometry" />
        </mxCell>
        <mxCell id="dMFxi2ecZQlO_uNMJt3N-48" value="UploadImage" style="edgeLabel;html=1;align=center;verticalAlign=middle;resizable=0;points=[];" vertex="1" connectable="0" parent="dMFxi2ecZQlO_uNMJt3N-45">
          <mxGeometry x="0.0677" y="2" relative="1" as="geometry">
            <mxPoint as="offset" />
          </mxGeometry>
        </mxCell>
        <mxCell id="dMFxi2ecZQlO_uNMJt3N-46" style="edgeStyle=orthogonalEdgeStyle;rounded=0;orthogonalLoop=1;jettySize=auto;html=1;exitX=1;exitY=0.75;exitDx=0;exitDy=0;entryX=0.5;entryY=0;entryDx=0;entryDy=0;" edge="1" parent="1" source="dMFxi2ecZQlO_uNMJt3N-36" target="dMFxi2ecZQlO_uNMJt3N-32">
          <mxGeometry relative="1" as="geometry" />
        </mxCell>
        <mxCell id="dMFxi2ecZQlO_uNMJt3N-49" value="RunAnalysis / ViewAnalysis" style="edgeLabel;html=1;align=center;verticalAlign=middle;resizable=0;points=[];" vertex="1" connectable="0" parent="dMFxi2ecZQlO_uNMJt3N-46">
          <mxGeometry x="0.7513" y="1" relative="1" as="geometry">
            <mxPoint as="offset" />
          </mxGeometry>
        </mxCell>
        <mxCell id="dMFxi2ecZQlO_uNMJt3N-36" value="RegisteredUser" style="swimlane;fontStyle=0;childLayout=stackLayout;horizontal=1;startSize=30;horizontalStack=0;resizeParent=1;resizeParentMax=0;resizeLast=0;collapsible=1;marginBottom=0;whiteSpace=wrap;html=1;" vertex="1" parent="1">
          <mxGeometry x="90" y="50" width="200" height="180" as="geometry" />
        </mxCell>
        <mxCell id="dMFxi2ecZQlO_uNMJt3N-37" value="&lt;b&gt;- accountID&lt;/b&gt;&lt;div&gt;- userToken&lt;/div&gt;&lt;div&gt;- plants[]&lt;/div&gt;" style="text;strokeColor=none;fillColor=none;align=left;verticalAlign=middle;spacingLeft=4;spacingRight=4;overflow=hidden;points=[[0,0.5],[1,0.5]];portConstraint=eastwest;rotatable=0;whiteSpace=wrap;html=1;" vertex="1" parent="dMFxi2ecZQlO_uNMJt3N-36">
          <mxGeometry y="30" width="200" height="50" as="geometry" />
        </mxCell>
        <mxCell id="dMFxi2ecZQlO_uNMJt3N-38" value="UploadImage (imagePath)&lt;br&gt;RunAnalysis (plantID, imageID)&lt;div&gt;CreateNewPlant ()&lt;/div&gt;&lt;div&gt;DeletePlant (plantID)&lt;/div&gt;&lt;div&gt;ViewAnalysis (analysisID)&lt;/div&gt;&lt;div&gt;Signout ()&lt;/div&gt;" style="rounded=0;whiteSpace=wrap;html=1;align=left;" vertex="1" parent="dMFxi2ecZQlO_uNMJt3N-36">
          <mxGeometry y="80" width="200" height="100" as="geometry" />
        </mxCell>
        <mxCell id="dMFxi2ecZQlO_uNMJt3N-40" style="edgeStyle=orthogonalEdgeStyle;rounded=0;orthogonalLoop=1;jettySize=auto;html=1;exitX=1;exitY=0.5;exitDx=0;exitDy=0;entryX=0;entryY=0.5;entryDx=0;entryDy=0;" edge="1" parent="1" source="dMFxi2ecZQlO_uNMJt3N-30" target="dMFxi2ecZQlO_uNMJt3N-26">
          <mxGeometry relative="1" as="geometry" />
        </mxCell>
        <mxCell id="dMFxi2ecZQlO_uNMJt3N-41" style="edgeStyle=orthogonalEdgeStyle;rounded=0;orthogonalLoop=1;jettySize=auto;html=1;exitX=1;exitY=0.5;exitDx=0;exitDy=0;entryX=0;entryY=0.5;entryDx=0;entryDy=0;" edge="1" parent="1" source="dMFxi2ecZQlO_uNMJt3N-26" target="dMFxi2ecZQlO_uNMJt3N-33">
          <mxGeometry relative="1" as="geometry" />
        </mxCell>
        <mxCell id="dMFxi2ecZQlO_uNMJt3N-42" style="edgeStyle=orthogonalEdgeStyle;rounded=0;orthogonalLoop=1;jettySize=auto;html=1;exitX=1;exitY=0.5;exitDx=0;exitDy=0;entryX=0;entryY=0.5;entryDx=0;entryDy=0;" edge="1" parent="1" source="dMFxi2ecZQlO_uNMJt3N-33" target="dMFxi2ecZQlO_uNMJt3N-35">
          <mxGeometry relative="1" as="geometry" />
        </mxCell>
        <mxCell id="dMFxi2ecZQlO_uNMJt3N-51" value="GenerateLeaves" style="edgeLabel;html=1;align=center;verticalAlign=middle;resizable=0;points=[];" vertex="1" connectable="0" parent="dMFxi2ecZQlO_uNMJt3N-42">
          <mxGeometry x="-0.0409" y="-1" relative="1" as="geometry">
            <mxPoint as="offset" />
          </mxGeometry>
        </mxCell>
        <mxCell id="dMFxi2ecZQlO_uNMJt3N-44" style="edgeStyle=orthogonalEdgeStyle;rounded=0;orthogonalLoop=1;jettySize=auto;html=1;exitX=0.25;exitY=1;exitDx=0;exitDy=0;entryX=0.5;entryY=0;entryDx=0;entryDy=0;" edge="1" parent="1" source="dMFxi2ecZQlO_uNMJt3N-38" target="dMFxi2ecZQlO_uNMJt3N-29">
          <mxGeometry relative="1" as="geometry" />
        </mxCell>
        <mxCell id="dMFxi2ecZQlO_uNMJt3N-47" value="CreateNewPlant" style="edgeLabel;html=1;align=center;verticalAlign=middle;resizable=0;points=[];" vertex="1" connectable="0" parent="dMFxi2ecZQlO_uNMJt3N-44">
          <mxGeometry x="-0.2853" y="4" relative="1" as="geometry">
            <mxPoint as="offset" />
          </mxGeometry>
        </mxCell>
      </root>
    </mxGraphModel>
  </diagram>
</mxfile>
